<?xml version="1.0" encoding="utf-8"?>
<!-- Generator: Adobe Illustrator 15.0.0, SVG Export Plug-In . SVG Version: 6.00 Build 0)  -->
<!DOCTYPE svg PUBLIC "-//W3C//DTD SVG 1.1//EN" "http://www.w3.org/Graphics/SVG/1.1/DTD/svg11.dtd">
<svg version="1.1" id="Layer_1" xmlns="http://www.w3.org/2000/svg" xmlns:xlink="http://www.w3.org/1999/xlink" x="0px" y="0px"
	 width="36px" height="36px" viewBox="0 0 36 36" enable-background="new 0 0 36 36" xml:space="preserve">
<g>
	<path fill="#42424D" d="M15.003,25.924h8.054V6.151h-8.054V25.924z M21.869,23.146h-2.152v-2.151h2.152V23.146z M17.866,19.924
		v-2.148h2.153v2.149L17.866,19.924L17.866,19.924z M21.869,16.704h-2.152v-2.153h2.152V16.704z M17.866,13.482v-2.151h2.153v2.151
		H17.866z M19.717,8.111h2.152v2.147h-2.152V8.111z M16.013,8.111h2.152v2.147h-2.152V8.111z M16.013,14.553h2.152v2.151h-2.152
		V14.553z M16.013,20.992h2.152v2.153h-2.152V20.992z M9.044,25.924h4.827V12.401H9.044V25.924z M10.384,13.463h2.151v2.151h-2.151
		V13.463z M10.384,17.288h2.151v2.151h-2.151V17.288z M10.384,20.963h2.151v2.149h-2.151V20.963z M29.744,14.307v-2.568h-1.17V9.232
		h-0.842V6.898h-0.707V9.23h-0.838v2.508h-1.173v2.567h-0.952v11.618h6.639V14.307H29.744L29.744,14.307z M27.312,24.445h-2.153
		v-2.152h2.153V24.445z M27.312,17.85h-2.153V15.7h2.153V17.85z M29.836,21.118h-2.151V18.97h2.151V21.118L29.836,21.118z"/>
	<polygon fill="#0A0B0B" points="3.828,29.848 3.828,22.181 1.674,22.181 4.974,18.184 8.271,22.181 6.121,22.181 6.121,27.201 
		32.006,27.201 32.006,21.812 34.326,21.812 34.326,29.848 	"/>
</g>
</svg>
